<?xml version="1.0" encoding="UTF-8"?>
<svg width="161px" height="39px" viewBox="0 0 161 39" version="1.1" xmlns="http://www.w3.org/2000/svg" xmlns:xlink="http://www.w3.org/1999/xlink">
    <!-- Generator: Sketch 57.1 (83088) - https://sketch.com -->
    <title>#Logo</title>
    <desc>Created with Sketch.</desc>
    <defs>
        <polygon id="path-1" points="0.385745455 0.128109091 12.4599091 0.128109091 12.4599091 24.9533818 0.385745455 24.9533818"></polygon>
        <polygon id="path-3" points="0 0 38.9996344 0 38.9996344 38.9997562 0 38.9997562"></polygon>
    </defs>
    <g id="Page-1" stroke="none" stroke-width="1" fill="none" fill-rule="evenodd">
        <g id="Advelit_Landing_page" transform="translate(-52.000000, -32.000000)">
            <g id="#Header">
                <g id="#Logo" transform="translate(52.000000, 32.000000)">
                    <path d="M104.895231,15.1097562 C104.743892,14.6985774 104.458165,14.3831357 104.021098,14.1609764 C103.613089,13.9842309 103.18934,13.9596829 102.76196,14.0934694 C102.313997,14.2346204 101.993159,14.5279689 101.80671,14.9612409 L96.5461744,26.7381386 L91.1451969,14.9170545 C90.9393762,14.5279689 90.6366987,14.2542588 90.2456393,14.1020612 C89.8376301,13.9424993 89.4150923,13.9707295 88.998608,14.1818422 C88.5591203,14.3905001 88.2588642,14.7010322 88.105104,15.1036192 C87.9501331,15.5074336 87.967083,15.9333412 88.1523217,16.3359282 L94.932298,30.8572911 C95.3621,31.8011613 96.0425191,32 96.5364888,32 C97.2907611,32 97.8682698,31.60355 98.2096901,30.8572911 L104.844381,16.3273364 C105.033252,15.941933 105.050202,15.533209 104.895231,15.1097562" id="Fill-1" fill="#22417A"></path>
                    <path d="M123.540203,21.8273636 L112.50017,21.8273636 C112.628628,21.2743832 112.853735,20.7140624 113.16448,20.1671991 C114.386665,18.3149596 115.88901,17.4157548 117.757154,17.4157548 L118.443485,17.4157548 C119.662,17.4157548 120.930674,18.0286821 122.163869,19.1811323 C122.940733,20.2344865 123.401957,21.1214572 123.540203,21.8273636 M126.01638,18.9327805 L126.006593,18.9119826 C124.104194,15.652824 121.390675,14 117.941888,14 C116.61082,14 115.179433,14.3743628 113.64895,15.1353225 C110.564739,17.0732006 109,19.716985 109,22.9920478 C109,24.537212 109.393937,26.0420037 110.189152,27.4880718 C112.11602,30.4829742 114.724325,32 117.941888,32 L118.431251,31.9975532 C121.756474,31.5644668 123.304085,30.7545708 123.304085,29.4479712 L123.304085,29.26446 C123.304085,28.7885543 123.113233,27.9541902 121.75525,27.6984979 L121.387005,27.6984979 L121.19493,27.743764 C120.014341,28.33467 118.959763,28.6344049 118.059335,28.6344049 C117.281248,28.6344049 116.426086,28.4582342 115.5697,28.1352545 C114.219058,27.4036566 113.305172,26.4151431 112.788894,25.1256712 L125.385102,25.1256712 C125.883029,25.1256712 126.754095,24.9164684 127,23.4434854 L127,23.1253993 C127,21.6230544 126.66968,20.2124652 126.01638,18.9327805" id="Fill-3" fill="#22417A"></path>
                    <path d="M142.985333,11 C143.544,11 144.024,10.8025214 144.412,10.4129015 C144.801333,10.0246158 145,9.54292818 145,8.98251594 C145,8.376737 144.792,7.88570913 144.385333,7.52544412 C143.570667,6.81025136 142.4,6.83960629 141.616,7.52544412 C141.206667,7.88570913 141,8.37540268 141,8.98251594 C141,9.54159387 141.197333,10.0219472 141.586667,10.4129015 C141.976,10.8025214 142.448,11 142.985333,11" id="Fill-5" fill="#22417A"></path>
                    <path d="M142.515813,14 C142.061747,14 141.692395,14.1516716 141.413404,14.4488992 C141.138931,14.7473498 141,15.1473226 141,15.6414787 L141,30.3597445 C141,30.8514542 141.138931,31.2526502 141.414533,31.552324 C141.692395,31.8495515 142.061747,32 142.515813,32 C142.950678,32 143.309864,31.8495515 143.584337,31.552324 C143.85994,31.2538733 144,30.8526774 144,30.3597445 L144,15.6414787 C144,15.1460995 143.85994,14.7449035 143.584337,14.4488992 C143.309864,14.1516716 142.950678,14 142.515813,14" id="Fill-7" fill="#22417A"></path>
                    <g id="Group-11" transform="translate(148.000000, 7.000000)">
                        <mask id="mask-2" fill="white">
                            <use xlink:href="#path-1"></use>
                        </mask>
                        <g id="Clip-10"></g>
                        <path d="M12.0526545,22.1711545 C11.7737455,21.8545182 11.4109273,21.6937455 10.9736545,21.6937455 L10.0802,21.6937455 C9.12174545,21.6937455 8.35829091,21.3599273 7.74847273,20.6751091 C7.1422,19.9939727 6.83492727,19.0980636 6.83492727,18.0143818 L6.83492727,9.56338182 L10.2787455,9.56338182 C10.6888364,9.56338182 11.0351091,9.4247 11.3081091,9.15224545 C11.5893818,8.87610909 11.7323818,8.52879091 11.7323818,8.12133636 C11.7323818,7.69301818 11.5893818,7.33465455 11.3092909,7.05729091 C11.0339273,6.78483636 10.6876545,6.64738182 10.2787455,6.64738182 L6.83492727,6.64738182 L6.83492727,1.77388182 C6.83492727,1.30383636 6.68365455,0.907427273 6.38347273,0.5957 C6.08447273,0.2852 5.70274545,0.128109091 5.24892727,0.128109091 C4.79156364,0.128109091 4.41338182,0.286427273 4.1262,0.599381818 C3.84138182,0.909881818 3.69601818,1.30506364 3.69601818,1.77388182 L3.69601818,6.64738182 L1.83938182,6.64738182 C1.43165455,6.64738182 1.08538182,6.78483636 0.810018182,7.05729091 C0.528745455,7.33465455 0.385745455,7.69301818 0.385745455,8.12133636 C0.385745455,8.52879091 0.528745455,8.87610909 0.808836364,9.15101818 C1.0842,9.4247 1.43047273,9.56338182 1.83938182,9.56338182 L3.69601818,9.56338182 L3.69601818,18.0143818 C3.69601818,19.3410636 3.97492727,20.5413364 4.52683636,21.5820636 C5.08229091,22.6240182 5.84692727,23.4536545 6.80065455,24.0501091 C7.75910909,24.6490182 8.86292727,24.9533818 10.0802,24.9533818 L10.7751091,24.9533818 C11.2419273,24.9533818 11.6413818,24.8061091 11.9616545,24.5164727 C12.2925636,24.2170182 12.4603818,23.8206091 12.4603818,23.3407455 C12.4603818,22.8756091 12.3232909,22.4816545 12.0526545,22.1711545" id="Fill-9" fill="#22417A" mask="url(#mask-2)"></path>
                    </g>
                    <path d="M53,28.7578475 C49.8202201,28.7578475 47.2421525,26.1797799 47.2421525,23 C47.2421525,19.8189971 49.8202201,17.2409295 53,17.2409295 C56.1810029,17.2409295 58.7578475,19.8189971 58.7578475,23 C58.7578475,26.1797799 56.1810029,28.7578475 53,28.7578475 M62,23 C62,18.0297595 57.9702405,14 53,14 C48.0297595,14 44,18.0297595 44,23 C44,27.9702405 48.0297595,32 53,32 C55.203832,32 57.2205463,31.203832 58.7847534,29.8891154 L58.7847534,30.3697513 C58.7847534,30.8406033 58.9364044,31.2295149 59.2348145,31.529148 C59.5344476,31.8263351 59.9221362,31.9767631 60.3905422,31.9767631 C60.8601712,31.9767631 61.2490828,31.8263351 61.5499389,31.527925 C61.847126,31.2295149 61.997554,30.8406033 61.997554,30.3697513 L61.997554,23.0366898 C61.997554,23.0244598 62,23.0122299 62,23" id="Fill-12" fill="#22417A"></path>
                    <path d="M75,28.7286144 C71.8189971,28.7286144 69.2421525,26.1273014 69.2421525,22.9188509 C69.2421525,19.7091663 71.8189971,17.1078533 75,17.1078533 C78.1797799,17.1078533 80.7578475,19.7091663 80.7578475,22.9188509 C80.7578475,26.1273014 78.1797799,28.7286144 75,28.7286144 L75,28.7286144 Z M83.997554,22.9558715 C83.997554,22.9435313 84,22.9311911 84,22.9188509 C84,22.9065107 83.997554,22.8941705 83.997554,22.8818303 L83.997554,8.62150155 C83.997554,8.14640407 83.847126,7.75398588 83.5499389,7.45288514 C83.2490828,7.15178439 82.8589482,7 82.3893192,7 C81.9221362,7 81.5332246,7.15178439 81.2335915,7.45165112 C80.9351814,7.75398588 80.7847534,8.14640407 80.7847534,8.62150155 L80.7847534,15.9663853 C79.2205463,14.6398144 77.203832,13.8377018 75,13.8377018 C70.0297595,13.8377018 66,17.9037958 66,22.9188509 C66,27.9339059 70.0297595,32 75,32 C79.8369344,32 83.7700775,28.1461573 83.9792091,23.3186732 L83.997554,23.3186732 L83.997554,22.9558715 Z" id="Fill-14" fill="#22417A"></path>
                    <path d="M136.635271,29.2230461 C136.381597,28.9103762 136.042585,28.7521875 135.628758,28.7521875 L134.809285,28.7521875 C134.32181,28.7521875 133.925518,28.4926591 133.598196,27.9587721 C133.249833,27.3902813 133.072144,26.6302338 133.072144,25.7033467 L133.072144,8.62390627 C133.072144,8.14810421 132.928357,7.75510406 132.64312,7.45355677 C132.357882,7.15324534 131.98497,7 131.537241,7 C131.087174,7 130.715431,7.15324534 130.429025,7.45355677 C130.143788,7.75510406 130,8.14810421 130,8.62390627 L130,25.7033467 C130,26.9206585 130.201069,28.0106777 130.59853,28.9437441 C131.000668,29.8916407 131.57348,30.6442731 132.30177,31.1818676 C133.035905,31.7244056 133.879927,32 134.809285,32 L135.235972,32 C135.739813,32 136.160655,31.8529339 136.486807,31.5637451 C136.828156,31.2597261 137,30.8605467 137,30.3760937 C137,29.9089426 136.877255,29.5208859 136.635271,29.2230461" id="Fill-16" fill="#22417A"></path>
                    <g id="Group-20">
                        <mask id="mask-4" fill="white">
                            <use xlink:href="#path-3"></use>
                        </mask>
                        <g id="Clip-19"></g>
                        <path d="M32.5000406,38.9997562 L6.50044688,38.9997562 C2.91000938,38.9997562 -0.000365625,36.0893813 -0.000365625,32.5001625 L-0.000365625,6.49935 C-0.000365625,2.91013125 2.91000938,-0.00024375 6.50044688,-0.00024375 L32.5000406,-0.00024375 C36.0892594,-0.00024375 38.9996344,2.91013125 38.9996344,6.49935 L38.9996344,32.5001625 C38.9996344,36.0893813 36.0892594,38.9997562 32.5000406,38.9997562" id="Fill-18" fill="#85B504" mask="url(#mask-4)"></path>
                    </g>
                    <path d="M19.500617,28.1375191 C14.7298978,28.1375191 10.8624809,24.2701022 10.8624809,19.499383 C10.8624809,14.7286638 14.7298978,10.8612469 19.500617,10.8612469 C24.2713362,10.8612469 28.1387531,14.7286638 28.1387531,19.499383 C28.1387531,24.2701022 24.2713362,28.1375191 19.500617,28.1375191 M32,19.499383 C32,12.5962782 26.4037218,7 19.500617,7 C12.5962782,7 7,12.5962782 7,19.499383 C7,26.4037218 12.5962782,32 19.500617,32 C22.8546819,32 25.8940718,30.6709611 28.1387531,28.5212992 L28.1387531,30.0502493 C28.1387531,31.1164421 29.0025668,31.9802557 30.0687596,31.9802557 C31.1361864,31.9802557 32,31.1164421 32,30.0502493 L32,19.5684881 L31.9962979,19.5684881 C31.997532,19.5450417 32,19.5228294 32,19.499383" id="Fill-21" fill="#FFFFFF"></path>
                </g>
            </g>
        </g>
    </g>
</svg>