<?xml version="1.0" standalone="no"?>
<!DOCTYPE svg PUBLIC "-//W3C//DTD SVG 20010904//EN"
 "http://www.w3.org/TR/2001/REC-SVG-20010904/DTD/svg10.dtd">
<svg version="1.0" xmlns="http://www.w3.org/2000/svg"
 width="1000.000000pt" height="1000.000000pt" viewBox="0 0 1000.000000 1000.000000"
 preserveAspectRatio="xMidYMid meet">
<metadata>
Created by potrace 1.11, written by Peter Selinger 2001-2013
</metadata>
<g transform="translate(0.000000,1000.000000) scale(0.100000,-0.100000)"
fill="#000000" stroke="none">
<path d="M1465 9993 c-378 -49 -728 -225 -991 -495 -236 -242 -372 -502 -450
-858 -18 -82 -19 -211 -19 -3640 0 -3429 1 -3558 19 -3640 81 -373 233 -651
488 -895 254 -243 536 -385 886 -446 112 -19 189 -19 3602 -19 3413 0 3490 0
3602 19 368 64 677 226 931 491 245 255 387 537 448 888 19 112 19 189 19
3602 0 3413 0 3490 -19 3602 -60 347 -202 631 -441 881 -236 247 -498 396
-851 483 l-114 29 -3540 1 c-1947 1 -3553 -1 -3570 -3z m3940 -1818 c605 -82
1139 -310 1610 -688 128 -103 369 -344 472 -472 378 -471 598 -984 690 -1610
16 -110 18 -249 21 -1639 2 -1049 -1 -1535 -8 -1571 -25 -121 -113 -246 -221
-316 -149 -95 -369 -95 -518 0 -62 40 -142 125 -171 181 -52 102 -54 112 -59
378 l-6 253 -80 -72 c-206 -185 -451 -351 -705 -478 -273 -136 -509 -219 -782
-275 -244 -50 -354 -60 -648 -60 -207 0 -306 4 -400 17 -617 87 -1143 311
-1615 690 -128 103 -369 344 -472 472 -379 472 -603 998 -690 1615 -24 176
-24 624 0 800 87 617 311 1143 690 1615 103 128 344 369 472 472 517 415 1099
646 1785 707 103 9 520 -3 635 -19z"/>
<path d="M4780 7208 c-228 -21 -510 -100 -723 -201 -244 -116 -429 -247 -623
-441 -347 -347 -549 -749 -630 -1251 -25 -152 -25 -467 -1 -625 75 -483 275
-891 607 -1234 287 -297 661 -512 1061 -610 190 -46 318 -60 534 -60 345 0
639 65 942 209 389 185 732 493 953 859 471 781 415 1761 -143 2501 -33 44
-119 139 -191 211 -194 193 -350 306 -588 424 -365 181 -785 257 -1198 218z"/>
</g>
</svg>
